<svg xmlns="http://www.w3.org/2000/svg" viewBox="0 0 64 64" width="64" height="64">
  <ellipse cx="32" cy="55" rx="13" ry="2.5" fill="#00000022"/>
  <circle cx="19" cy="17" r="8" fill="#66BB6A"/><circle cx="45" cy="17" r="8" fill="#66BB6A"/>
  <circle cx="19" cy="16" r="4.6" fill="#fff"/><circle cx="45" cy="16" r="4.6" fill="#fff"/>
  <circle cx="19" cy="17" r="2.3" fill="#1F3320"/><circle cx="45" cy="17" r="2.3" fill="#1F3320"/>
  <circle cx="19.8" cy="16.1" r="0.8" fill="#fff"/><circle cx="45.8" cy="16.1" r="0.8" fill="#fff"/>
  <path d="M32 12 C38 16 50 28 55 44 C57 50 50 55 32 55 C14 55 7 50 9 44 C14 28 26 16 32 12 Z" fill="#66BB6A"/>
  <path d="M15 26 Q32 15 49 26" stroke="#8FD08F" stroke-width="3" fill="none" stroke-linecap="round"/>
  <ellipse cx="20" cy="36" rx="3.6" ry="2.3" fill="#C8E6C9" opacity="0.9"/><ellipse cx="44" cy="36" rx="3.6" ry="2.3" fill="#C8E6C9" opacity="0.9"/>
  <circle cx="26" cy="33" r="2.4" fill="#1F3320"/><circle cx="38" cy="33" r="2.4" fill="#1F3320"/>
  <circle cx="26.8" cy="32.2" r="0.8" fill="#fff"/><circle cx="38.8" cy="32.2" r="0.8" fill="#fff"/>
  <path d="M22 40 q10 7 20 0" stroke="#2E5A2E" stroke-width="2.2" fill="none" stroke-linecap="round"/>
</svg>
